<?xml version="1.0" encoding="UTF-8"?><svg id="Ebene_1" xmlns="http://www.w3.org/2000/svg" viewBox="0 0 16 16"><path d="M12.2865,9.7865c-.3214,0-.6264.0662-.9089.1772l-2.0438-2.0438,1.9205-1.936c.3156.1443.6633.2296,1.0323.2296,1.378,0,2.5-1.122,2.5-2.5s-1.122-2.5-2.5-2.5-2.5,1.122-2.5,2.5c0,.2718.0546.5288.1352.774l-2.002,2.0184-1.8834-1.8834c.111-.2825.1772-.5876.1772-.9089,0-1.378-1.122-2.5-2.5-2.5S1.2135,2.3355,1.2135,3.7135s1.122,2.5,2.5,2.5c.3212,0,.6262-.0662.9086-.1771l5.3416,5.3416c-.111.2824-.1771.5873-.1771.9086,0,1.378,1.122,2.5,2.5,2.5s2.5-1.122,2.5-2.5-1.122-2.5-2.5-2.5ZM12.2865,2.2135c.828,0,1.5.672,1.5,1.5s-.672,1.5-1.5,1.5-1.5-.672-1.5-1.5.672-1.5,1.5-1.5ZM2.2135,3.7135c0-.828.672-1.5,1.5-1.5s1.5.672,1.5,1.5-.672,1.5-1.5,1.5-1.5-.672-1.5-1.5ZM12.2865,13.7865c-.828,0-1.5-.672-1.5-1.5s.672-1.5,1.5-1.5,1.5.672,1.5,1.5-.672,1.5-1.5,1.5Z"/></svg>